<svg xmlns="http://www.w3.org/2000/svg" version="1.1" xmlns:xlink="http://www.w3.org/1999/xlink" xmlns:svgjs="http://svgjs.dev/svgjs" width="1440" height="560" preserveAspectRatio="none" viewBox="0 0 1440 560"><g mask="url(&quot;#SvgjsMask1000&quot;)" fill="none"><rect width="1440" height="560" x="0" y="0" fill="#0e2a47"></rect><path d="M-107.92 404.85L-107.92 404.85" stroke="#132e65" stroke-width="1.5"></path><path d="M-107.92 404.85L-92.76 547.99" stroke="#132e65" stroke-width="1.5"></path><path d="M-107.92 404.85L89.82 344.57" stroke="#132e65" stroke-width="1.5"></path><path d="M-107.92 404.85L90.85 557.44" stroke="#132e65" stroke-width="1.5"></path><path d="M-107.92 404.85L-101.37 705.77" stroke="#132e65" stroke-width="1.5"></path><path d="M-92.76 547.99L-92.76 547.99" stroke="#132e65" stroke-width="1.5"></path><path d="M-92.76 547.99L-101.37 705.77" stroke="#132e65" stroke-width="1.5"></path><path d="M-101.37 705.77L-101.37 705.77" stroke="#132e65" stroke-width="1.5"></path><path d="M-101.37 705.77L107.39 693.34" stroke="#132e65" stroke-width="1.5"></path><path d="M89.82 344.57L89.82 344.57" stroke="#132e65" stroke-width="1.5"></path><path d="M89.82 344.57L90.85 557.44" stroke="#132e65" stroke-width="1.5"></path><path d="M89.82 344.57L341.72 351.63" stroke="#132e65" stroke-width="1.5"></path><path d="M90.85 557.44L90.85 557.44" stroke="#132e65" stroke-width="1.5"></path><path d="M90.85 557.44L107.39 693.34" stroke="#132e65" stroke-width="1.5"></path><path d="M90.85 557.44L261.25 545.44" stroke="#132e65" stroke-width="1.5"></path><path d="M90.85 557.44L229.92 661.41" stroke="#132e65" stroke-width="1.5"></path><path d="M107.39 693.34L107.39 693.34" stroke="#132e65" stroke-width="1.5"></path><path d="M107.39 693.34L229.92 661.41" stroke="#132e65" stroke-width="1.5"></path><path d="M261.25 545.44L261.25 545.44" stroke="#132e65" stroke-width="1.5"></path><path d="M261.25 545.44L229.92 661.41" stroke="#132e65" stroke-width="1.5"></path><path d="M261.25 545.44L399.01 521.07" stroke="#132e65" stroke-width="1.5"></path><path d="M261.25 545.44L355.92 710.86" stroke="#132e65" stroke-width="1.5"></path><path d="M229.92 661.41L229.92 661.41" stroke="#132e65" stroke-width="1.5"></path><path d="M229.92 661.41L355.92 710.86" stroke="#132e65" stroke-width="1.5"></path><path d="M229.92 661.41L399.01 521.07" stroke="#132e65" stroke-width="1.5"></path><path d="M229.92 661.41L545.32 659.71" stroke="#132e65" stroke-width="1.5"></path><path d="M341.72 351.63L341.72 351.63" stroke="#132e65" stroke-width="1.5"></path><path d="M341.72 351.63L399.01 521.07" stroke="#132e65" stroke-width="1.5"></path><path d="M341.72 351.63L261.25 545.44" stroke="#132e65" stroke-width="1.5"></path><path d="M399.01 521.07L399.01 521.07" stroke="#132e65" stroke-width="1.5"></path><path d="M355.92 710.86L355.92 710.86" stroke="#132e65" stroke-width="1.5"></path><path d="M355.92 710.86L399.01 521.07" stroke="#132e65" stroke-width="1.5"></path><path d="M550.83 403L550.83 403" stroke="#132e65" stroke-width="1.5"></path><path d="M550.83 403L647.07 365.02" stroke="#132e65" stroke-width="1.5"></path><path d="M550.83 403L399.01 521.07" stroke="#132e65" stroke-width="1.5"></path><path d="M550.83 403L708.66 521.35" stroke="#132e65" stroke-width="1.5"></path><path d="M550.83 403L341.72 351.63" stroke="#132e65" stroke-width="1.5"></path><path d="M545.32 659.71L545.32 659.71" stroke="#132e65" stroke-width="1.5"></path><path d="M545.32 659.71L681.69 666.3" stroke="#132e65" stroke-width="1.5"></path><path d="M545.32 659.71L355.92 710.86" stroke="#132e65" stroke-width="1.5"></path><path d="M545.32 659.71L399.01 521.07" stroke="#132e65" stroke-width="1.5"></path><path d="M545.32 659.71L708.66 521.35" stroke="#132e65" stroke-width="1.5"></path><path d="M545.32 659.71L550.83 403" stroke="#132e65" stroke-width="1.5"></path><path d="M545.32 659.71L827.28 655.69" stroke="#132e65" stroke-width="1.5"></path><path d="M647.07 365.02L647.07 365.02" stroke="#132e65" stroke-width="1.5"></path><path d="M647.07 365.02L808.02 368.91" stroke="#132e65" stroke-width="1.5"></path><path d="M647.07 365.02L708.66 521.35" stroke="#132e65" stroke-width="1.5"></path><path d="M647.07 365.02L797.04 500.94" stroke="#132e65" stroke-width="1.5"></path><path d="M647.07 365.02L832.9 237.73" stroke="#132e65" stroke-width="1.5"></path><path d="M647.07 365.02L399.01 521.07" stroke="#132e65" stroke-width="1.5"></path><path d="M708.66 521.35L708.66 521.35" stroke="#132e65" stroke-width="1.5"></path><path d="M708.66 521.35L797.04 500.94" stroke="#132e65" stroke-width="1.5"></path><path d="M681.69 666.3L681.69 666.3" stroke="#132e65" stroke-width="1.5"></path><path d="M681.69 666.3L827.28 655.69" stroke="#132e65" stroke-width="1.5"></path><path d="M681.69 666.3L708.66 521.35" stroke="#132e65" stroke-width="1.5"></path><path d="M681.69 666.3L797.04 500.94" stroke="#132e65" stroke-width="1.5"></path><path d="M681.69 666.3L938.44 671.43" stroke="#132e65" stroke-width="1.5"></path><path d="M832.9 237.73L832.9 237.73" stroke="#132e65" stroke-width="1.5"></path><path d="M832.9 237.73L808.02 368.91" stroke="#132e65" stroke-width="1.5"></path><path d="M832.9 237.73L1005.06 233.14" stroke="#132e65" stroke-width="1.5"></path><path d="M832.9 237.73L970.34 409.08" stroke="#132e65" stroke-width="1.5"></path><path d="M808.02 368.91L808.02 368.91" stroke="#132e65" stroke-width="1.5"></path><path d="M808.02 368.91L797.04 500.94" stroke="#132e65" stroke-width="1.5"></path><path d="M808.02 368.91L970.34 409.08" stroke="#132e65" stroke-width="1.5"></path><path d="M808.02 368.91L708.66 521.35" stroke="#132e65" stroke-width="1.5"></path><path d="M797.04 500.94L797.04 500.94" stroke="#132e65" stroke-width="1.5"></path><path d="M797.04 500.94L827.28 655.69" stroke="#132e65" stroke-width="1.5"></path><path d="M797.04 500.94L971.17 532.43" stroke="#132e65" stroke-width="1.5"></path><path d="M797.04 500.94L970.34 409.08" stroke="#132e65" stroke-width="1.5"></path><path d="M827.28 655.69L827.28 655.69" stroke="#132e65" stroke-width="1.5"></path><path d="M827.28 655.69L938.44 671.43" stroke="#132e65" stroke-width="1.5"></path><path d="M827.28 655.69L708.66 521.35" stroke="#132e65" stroke-width="1.5"></path><path d="M970.02 -81.62L970.02 -81.62" stroke="#132e65" stroke-width="1.5"></path><path d="M970.02 -81.62L994.17 71.19" stroke="#132e65" stroke-width="1.5"></path><path d="M970.02 -81.62L1146.44 -45.38" stroke="#132e65" stroke-width="1.5"></path><path d="M970.02 -81.62L1113.79 46.57" stroke="#132e65" stroke-width="1.5"></path><path d="M970.02 -81.62L1005.06 233.14" stroke="#132e65" stroke-width="1.5"></path><path d="M994.17 71.19L994.17 71.19" stroke="#132e65" stroke-width="1.5"></path><path d="M994.17 71.19L1113.79 46.57" stroke="#132e65" stroke-width="1.5"></path><path d="M994.17 71.19L1005.06 233.14" stroke="#132e65" stroke-width="1.5"></path><path d="M994.17 71.19L1146.44 -45.38" stroke="#132e65" stroke-width="1.5"></path><path d="M1005.06 233.14L1005.06 233.14" stroke="#132e65" stroke-width="1.5"></path><path d="M1005.06 233.14L970.34 409.08" stroke="#132e65" stroke-width="1.5"></path><path d="M1005.06 233.14L1162.26 349.34" stroke="#132e65" stroke-width="1.5"></path><path d="M970.34 409.08L970.34 409.08" stroke="#132e65" stroke-width="1.5"></path><path d="M970.34 409.08L971.17 532.43" stroke="#132e65" stroke-width="1.5"></path><path d="M971.17 532.43L971.17 532.43" stroke="#132e65" stroke-width="1.5"></path><path d="M971.17 532.43L938.44 671.43" stroke="#132e65" stroke-width="1.5"></path><path d="M971.17 532.43L827.28 655.69" stroke="#132e65" stroke-width="1.5"></path><path d="M971.17 532.43L808.02 368.91" stroke="#132e65" stroke-width="1.5"></path><path d="M938.44 671.43L938.44 671.43" stroke="#132e65" stroke-width="1.5"></path><path d="M938.44 671.43L797.04 500.94" stroke="#132e65" stroke-width="1.5"></path><path d="M938.44 671.43L1160.44 666.47" stroke="#132e65" stroke-width="1.5"></path><path d="M1146.44 -45.38L1146.44 -45.38" stroke="#132e65" stroke-width="1.5"></path><path d="M1146.44 -45.38L1113.79 46.57" stroke="#132e65" stroke-width="1.5"></path><path d="M1146.44 -45.38L1308.29 -87.96" stroke="#132e65" stroke-width="1.5"></path><path d="M1113.79 46.57L1113.79 46.57" stroke="#132e65" stroke-width="1.5"></path><path d="M1113.79 46.57L1280.67 108.17" stroke="#132e65" stroke-width="1.5"></path><path d="M1113.79 46.57L1005.06 233.14" stroke="#132e65" stroke-width="1.5"></path><path d="M1113.79 46.57L1308.29 -87.96" stroke="#132e65" stroke-width="1.5"></path><path d="M1162.26 349.34L1162.26 349.34" stroke="#132e65" stroke-width="1.5"></path><path d="M1162.26 349.34L1308.24 402.77" stroke="#132e65" stroke-width="1.5"></path><path d="M1162.26 349.34L1304.39 214.65" stroke="#132e65" stroke-width="1.5"></path><path d="M1162.26 349.34L970.34 409.08" stroke="#132e65" stroke-width="1.5"></path><path d="M1162.26 349.34L971.17 532.43" stroke="#132e65" stroke-width="1.5"></path><path d="M1160.44 666.47L1160.44 666.47" stroke="#132e65" stroke-width="1.5"></path><path d="M1160.44 666.47L1280.55 652.68" stroke="#132e65" stroke-width="1.5"></path><path d="M1308.29 -87.96L1308.29 -87.96" stroke="#132e65" stroke-width="1.5"></path><path d="M1308.29 -87.96L1458.1 -75.22" stroke="#132e65" stroke-width="1.5"></path><path d="M1308.29 -87.96L1280.67 108.17" stroke="#132e65" stroke-width="1.5"></path><path d="M1308.29 -87.96L1388.68 93.14" stroke="#132e65" stroke-width="1.5"></path><path d="M1280.67 108.17L1280.67 108.17" stroke="#132e65" stroke-width="1.5"></path><path d="M1280.67 108.17L1388.68 93.14" stroke="#132e65" stroke-width="1.5"></path><path d="M1280.67 108.17L1304.39 214.65" stroke="#132e65" stroke-width="1.5"></path><path d="M1304.39 214.65L1304.39 214.65" stroke="#132e65" stroke-width="1.5"></path><path d="M1304.39 214.65L1388.68 93.14" stroke="#132e65" stroke-width="1.5"></path><path d="M1304.39 214.65L1308.24 402.77" stroke="#132e65" stroke-width="1.5"></path><path d="M1308.24 402.77L1308.24 402.77" stroke="#132e65" stroke-width="1.5"></path><path d="M1308.24 402.77L1447.21 522.08" stroke="#132e65" stroke-width="1.5"></path><path d="M1308.24 402.77L1553.71 380.52" stroke="#132e65" stroke-width="1.5"></path><path d="M1308.24 402.77L1280.55 652.68" stroke="#132e65" stroke-width="1.5"></path><path d="M1308.24 402.77L1398.59 658.89" stroke="#132e65" stroke-width="1.5"></path><path d="M1280.55 652.68L1280.55 652.68" stroke="#132e65" stroke-width="1.5"></path><path d="M1280.55 652.68L1398.59 658.89" stroke="#132e65" stroke-width="1.5"></path><path d="M1280.55 652.68L1447.21 522.08" stroke="#132e65" stroke-width="1.5"></path><path d="M1458.1 -75.22L1458.1 -75.22" stroke="#132e65" stroke-width="1.5"></path><path d="M1458.1 -75.22L1562.38 -39.63" stroke="#132e65" stroke-width="1.5"></path><path d="M1458.1 -75.22L1388.68 93.14" stroke="#132e65" stroke-width="1.5"></path><path d="M1458.1 -75.22L1572.49 89.57" stroke="#132e65" stroke-width="1.5"></path><path d="M1458.1 -75.22L1280.67 108.17" stroke="#132e65" stroke-width="1.5"></path><path d="M1388.68 93.14L1388.68 93.14" stroke="#132e65" stroke-width="1.5"></path><path d="M1388.68 93.14L1572.49 89.57" stroke="#132e65" stroke-width="1.5"></path><path d="M1388.68 93.14L1562.38 -39.63" stroke="#132e65" stroke-width="1.5"></path><path d="M1447.21 522.08L1447.21 522.08" stroke="#132e65" stroke-width="1.5"></path><path d="M1447.21 522.08L1556.53 538.95" stroke="#132e65" stroke-width="1.5"></path><path d="M1447.21 522.08L1398.59 658.89" stroke="#132e65" stroke-width="1.5"></path><path d="M1447.21 522.08L1553.71 380.52" stroke="#132e65" stroke-width="1.5"></path><path d="M1398.59 658.89L1398.59 658.89" stroke="#132e65" stroke-width="1.5"></path><path d="M1398.59 658.89L1550.87 669.37" stroke="#132e65" stroke-width="1.5"></path><path d="M1398.59 658.89L1556.53 538.95" stroke="#132e65" stroke-width="1.5"></path><path d="M1398.59 658.89L1160.44 666.47" stroke="#132e65" stroke-width="1.5"></path><path d="M1562.38 -39.63L1562.38 -39.63" stroke="#132e65" stroke-width="1.5"></path><path d="M1562.38 -39.63L1572.49 89.57" stroke="#132e65" stroke-width="1.5"></path><path d="M1562.38 -39.63L1308.29 -87.96" stroke="#132e65" stroke-width="1.5"></path><path d="M1562.38 -39.63L1608.2 222.98" stroke="#132e65" stroke-width="1.5"></path><path d="M1572.49 89.57L1572.49 89.57" stroke="#132e65" stroke-width="1.5"></path><path d="M1572.49 89.57L1608.2 222.98" stroke="#132e65" stroke-width="1.5"></path><path d="M1608.2 222.98L1608.2 222.98" stroke="#132e65" stroke-width="1.5"></path><path d="M1608.2 222.98L1553.71 380.52" stroke="#132e65" stroke-width="1.5"></path><path d="M1608.2 222.98L1388.68 93.14" stroke="#132e65" stroke-width="1.5"></path><path d="M1608.2 222.98L1304.39 214.65" stroke="#132e65" stroke-width="1.5"></path><path d="M1553.71 380.52L1553.71 380.52" stroke="#132e65" stroke-width="1.5"></path><path d="M1553.71 380.52L1556.53 538.95" stroke="#132e65" stroke-width="1.5"></path><path d="M1556.53 538.95L1556.53 538.95" stroke="#132e65" stroke-width="1.5"></path><path d="M1556.53 538.95L1550.87 669.37" stroke="#132e65" stroke-width="1.5"></path><path d="M1550.87 669.37L1550.87 669.37" stroke="#132e65" stroke-width="1.5"></path><circle r="5" cx="-107.92" cy="404.85" fill="#132e65"></circle><circle r="5" cx="-92.76" cy="547.99" fill="#132e65"></circle><circle r="5" cx="-101.37" cy="705.77" fill="#132e65"></circle><circle r="5" cx="89.82" cy="344.57" fill="#132e65"></circle><circle r="5" cx="90.85" cy="557.44" fill="#132e65"></circle><circle r="5" cx="107.39" cy="693.34" fill="#132e65"></circle><circle r="5" cx="261.25" cy="545.44" fill="#132e65"></circle><circle r="5" cx="229.92" cy="661.41" fill="#132e65"></circle><circle r="5" cx="341.72" cy="351.63" fill="#132e65"></circle><circle r="5" cx="399.01" cy="521.07" fill="#132e65"></circle><circle r="5" cx="355.92" cy="710.86" fill="#132e65"></circle><circle r="5" cx="550.83" cy="403" fill="#132e65"></circle><circle r="5" cx="545.32" cy="659.71" fill="#132e65"></circle><circle r="5" cx="647.07" cy="365.02" fill="#132e65"></circle><circle r="5" cx="708.66" cy="521.35" fill="#132e65"></circle><circle r="5" cx="681.69" cy="666.3" fill="#132e65"></circle><circle r="5" cx="832.9" cy="237.73" fill="#132e65"></circle><circle r="5" cx="808.02" cy="368.91" fill="#132e65"></circle><circle r="5" cx="797.04" cy="500.94" fill="#132e65"></circle><circle r="5" cx="827.28" cy="655.69" fill="#132e65"></circle><circle r="5" cx="970.02" cy="-81.62" fill="#132e65"></circle><circle r="5" cx="994.17" cy="71.19" fill="#132e65"></circle><circle r="5" cx="1005.06" cy="233.14" fill="#132e65"></circle><circle r="5" cx="970.34" cy="409.08" fill="#132e65"></circle><circle r="5" cx="971.17" cy="532.43" fill="#132e65"></circle><circle r="5" cx="938.44" cy="671.43" fill="#132e65"></circle><circle r="5" cx="1146.44" cy="-45.38" fill="#132e65"></circle><circle r="5" cx="1113.79" cy="46.57" fill="#132e65"></circle><circle r="5" cx="1162.26" cy="349.34" fill="#132e65"></circle><circle r="5" cx="1160.44" cy="666.47" fill="#132e65"></circle><circle r="5" cx="1308.29" cy="-87.96" fill="#132e65"></circle><circle r="5" cx="1280.67" cy="108.17" fill="#132e65"></circle><circle r="5" cx="1304.39" cy="214.65" fill="#132e65"></circle><circle r="5" cx="1308.24" cy="402.77" fill="#132e65"></circle><circle r="5" cx="1280.55" cy="652.68" fill="#132e65"></circle><circle r="5" cx="1458.1" cy="-75.22" fill="#132e65"></circle><circle r="5" cx="1388.68" cy="93.14" fill="#132e65"></circle><circle r="5" cx="1447.21" cy="522.08" fill="#132e65"></circle><circle r="5" cx="1398.59" cy="658.89" fill="#132e65"></circle><circle r="5" cx="1562.38" cy="-39.63" fill="#132e65"></circle><circle r="5" cx="1572.49" cy="89.57" fill="#132e65"></circle><circle r="5" cx="1608.2" cy="222.98" fill="#132e65"></circle><circle r="5" cx="1553.71" cy="380.52" fill="#132e65"></circle><circle r="5" cx="1556.53" cy="538.95" fill="#132e65"></circle><circle r="5" cx="1550.87" cy="669.37" fill="#132e65"></circle><path d="M-95.59 644.36L-95.59 644.36" stroke="hsl(228.5, 77.2%, 51.5%)" stroke-width="1.5"></path><path d="M-95.59 644.36L-72.9 555.64" stroke="hsl(228.5, 77.2%, 51.5%)" stroke-width="1.5"></path><path d="M-95.59 644.36L94.28 650.85" stroke="hsl(228.5, 77.2%, 51.5%)" stroke-width="1.5"></path><path d="M-95.59 644.36L100.69 498.55" stroke="hsl(228.5, 77.2%, 51.5%)" stroke-width="1.5"></path><path d="M-95.59 644.36L229.6 534.99" stroke="hsl(228.5, 77.2%, 51.5%)" stroke-width="1.5"></path><path d="M516.61 697.92L516.61 697.92" stroke="hsl(228.5, 77.2%, 51.5%)" stroke-width="1.5"></path><path d="M516.61 697.92L401.65 645.35" stroke="hsl(228.5, 77.2%, 51.5%)" stroke-width="1.5"></path><path d="M516.61 697.92L561.28 524.17" stroke="hsl(228.5, 77.2%, 51.5%)" stroke-width="1.5"></path><path d="M674.34 383.59L674.34 383.59" stroke="hsl(228.5, 77.2%, 51.5%)" stroke-width="1.5"></path><path d="M674.34 383.59L790.46 504.71" stroke="hsl(228.5, 77.2%, 51.5%)" stroke-width="1.5"></path><path d="M674.34 383.59L851.01 387.55" stroke="hsl(228.5, 77.2%, 51.5%)" stroke-width="1.5"></path><path d="M995.44 354.73L995.44 354.73" stroke="hsl(228.5, 77.2%, 51.5%)" stroke-width="1.5"></path><path d="M995.44 354.73L1009.55 243.25" stroke="hsl(228.5, 77.2%, 51.5%)" stroke-width="1.5"></path><path d="M995.44 354.73L851.01 387.55" stroke="hsl(228.5, 77.2%, 51.5%)" stroke-width="1.5"></path><path d="M995.44 354.73L1147.95 348.64" stroke="hsl(228.5, 77.2%, 51.5%)" stroke-width="1.5"></path><path d="M1093.43 652.32L1093.43 652.32" stroke="hsl(228.5, 77.2%, 51.5%)" stroke-width="1.5"></path><path d="M1093.43 652.32L1120.15 548.82" stroke="hsl(228.5, 77.2%, 51.5%)" stroke-width="1.5"></path><path d="M1093.43 652.32L969.91 650.69" stroke="hsl(228.5, 77.2%, 51.5%)" stroke-width="1.5"></path><path d="M1093.43 652.32L946.21 528.32" stroke="hsl(228.5, 77.2%, 51.5%)" stroke-width="1.5"></path><path d="M1281.56 -77.22L1281.56 -77.22" stroke="hsl(228.5, 77.2%, 51.5%)" stroke-width="1.5"></path><path d="M1281.56 -77.22L1391.95 -85.15" stroke="hsl(228.5, 77.2%, 51.5%)" stroke-width="1.5"></path><path d="M1281.56 -77.22L1274.4 73.35" stroke="hsl(228.5, 77.2%, 51.5%)" stroke-width="1.5"></path><path d="M1281.56 -77.22L1390.69 106.93" stroke="hsl(228.5, 77.2%, 51.5%)" stroke-width="1.5"></path><path d="M1254.83 241.12L1254.83 241.12" stroke="hsl(228.5, 77.2%, 51.5%)" stroke-width="1.5"></path><path d="M1254.83 241.12L1264.88 357.54" stroke="hsl(228.5, 77.2%, 51.5%)" stroke-width="1.5"></path><path d="M1254.83 241.12L1128.12 242.77" stroke="hsl(228.5, 77.2%, 51.5%)" stroke-width="1.5"></path><path d="M1254.83 241.12L1147.95 348.64" stroke="hsl(228.5, 77.2%, 51.5%)" stroke-width="1.5"></path><path d="M1254.83 241.12L1274.4 73.35" stroke="hsl(228.5, 77.2%, 51.5%)" stroke-width="1.5"></path><path d="M1390.69 106.93L1390.69 106.93" stroke="hsl(228.5, 77.2%, 51.5%)" stroke-width="1.5"></path><path d="M1390.69 106.93L1274.4 73.35" stroke="hsl(228.5, 77.2%, 51.5%)" stroke-width="1.5"></path><path d="M1390.69 106.93L1441.43 249.96" stroke="hsl(228.5, 77.2%, 51.5%)" stroke-width="1.5"></path><path d="M1390.69 106.93L1254.83 241.12" stroke="hsl(228.5, 77.2%, 51.5%)" stroke-width="1.5"></path><path d="M1390.69 106.93L1391.95 -85.15" stroke="hsl(228.5, 77.2%, 51.5%)" stroke-width="1.5"></path><path d="M1391.62 512.6L1391.62 512.6" stroke="hsl(228.5, 77.2%, 51.5%)" stroke-width="1.5"></path><path d="M1391.62 512.6L1242.32 522.02" stroke="hsl(228.5, 77.2%, 51.5%)" stroke-width="1.5"></path><path d="M1391.62 512.6L1541.1 555.95" stroke="hsl(228.5, 77.2%, 51.5%)" stroke-width="1.5"></path><path d="M1391.62 512.6L1460.26 340.28" stroke="hsl(228.5, 77.2%, 51.5%)" stroke-width="1.5"></path><path d="M1391.62 512.6L1264.88 357.54" stroke="hsl(228.5, 77.2%, 51.5%)" stroke-width="1.5"></path><path d="M-72.9 555.64L-72.9 555.64" stroke="hsl(228.5, 77.2%, 51.5%)" stroke-width="1.5"></path><path d="M-72.9 555.64L100.69 498.55" stroke="hsl(228.5, 77.2%, 51.5%)" stroke-width="1.5"></path><path d="M-72.9 555.64L94.28 650.85" stroke="hsl(228.5, 77.2%, 51.5%)" stroke-width="1.5"></path><path d="M-72.9 555.64L229.6 534.99" stroke="hsl(228.5, 77.2%, 51.5%)" stroke-width="1.5"></path><path d="M100.69 498.55L100.69 498.55" stroke="hsl(228.5, 77.2%, 51.5%)" stroke-width="1.5"></path><path d="M100.69 498.55L229.6 534.99" stroke="hsl(228.5, 77.2%, 51.5%)" stroke-width="1.5"></path><path d="M100.69 498.55L94.28 650.85" stroke="hsl(228.5, 77.2%, 51.5%)" stroke-width="1.5"></path><path d="M94.28 650.85L94.28 650.85" stroke="hsl(228.5, 77.2%, 51.5%)" stroke-width="1.5"></path><path d="M94.28 650.85L229.6 534.99" stroke="hsl(228.5, 77.2%, 51.5%)" stroke-width="1.5"></path><path d="M94.28 650.85L401.65 645.35" stroke="hsl(228.5, 77.2%, 51.5%)" stroke-width="1.5"></path><path d="M94.28 650.85L401.16 499.99" stroke="hsl(228.5, 77.2%, 51.5%)" stroke-width="1.5"></path><path d="M229.6 534.99L229.6 534.99" stroke="hsl(228.5, 77.2%, 51.5%)" stroke-width="1.5"></path><path d="M229.6 534.99L401.16 499.99" stroke="hsl(228.5, 77.2%, 51.5%)" stroke-width="1.5"></path><path d="M401.16 499.99L401.16 499.99" stroke="hsl(228.5, 77.2%, 51.5%)" stroke-width="1.5"></path><path d="M401.16 499.99L401.65 645.35" stroke="hsl(228.5, 77.2%, 51.5%)" stroke-width="1.5"></path><path d="M401.16 499.99L561.28 524.17" stroke="hsl(228.5, 77.2%, 51.5%)" stroke-width="1.5"></path><path d="M401.65 645.35L401.65 645.35" stroke="hsl(228.5, 77.2%, 51.5%)" stroke-width="1.5"></path><path d="M401.65 645.35L561.28 524.17" stroke="hsl(228.5, 77.2%, 51.5%)" stroke-width="1.5"></path><path d="M401.65 645.35L229.6 534.99" stroke="hsl(228.5, 77.2%, 51.5%)" stroke-width="1.5"></path><path d="M561.28 524.17L561.28 524.17" stroke="hsl(228.5, 77.2%, 51.5%)" stroke-width="1.5"></path><path d="M561.28 524.17L674.34 383.59" stroke="hsl(228.5, 77.2%, 51.5%)" stroke-width="1.5"></path><path d="M561.28 524.17L790.46 504.71" stroke="hsl(228.5, 77.2%, 51.5%)" stroke-width="1.5"></path><path d="M561.28 524.17L712.03 711.5" stroke="hsl(228.5, 77.2%, 51.5%)" stroke-width="1.5"></path><path d="M712.03 711.5L712.03 711.5" stroke="hsl(228.5, 77.2%, 51.5%)" stroke-width="1.5"></path><path d="M712.03 711.5L847.54 647.8" stroke="hsl(228.5, 77.2%, 51.5%)" stroke-width="1.5"></path><path d="M712.03 711.5L516.61 697.92" stroke="hsl(228.5, 77.2%, 51.5%)" stroke-width="1.5"></path><path d="M851.01 387.55L851.01 387.55" stroke="hsl(228.5, 77.2%, 51.5%)" stroke-width="1.5"></path><path d="M851.01 387.55L790.46 504.71" stroke="hsl(228.5, 77.2%, 51.5%)" stroke-width="1.5"></path><path d="M790.46 504.71L790.46 504.71" stroke="hsl(228.5, 77.2%, 51.5%)" stroke-width="1.5"></path><path d="M847.54 647.8L847.54 647.8" stroke="hsl(228.5, 77.2%, 51.5%)" stroke-width="1.5"></path><path d="M847.54 647.8L969.91 650.69" stroke="hsl(228.5, 77.2%, 51.5%)" stroke-width="1.5"></path><path d="M847.54 647.8L790.46 504.71" stroke="hsl(228.5, 77.2%, 51.5%)" stroke-width="1.5"></path><path d="M847.54 647.8L946.21 528.32" stroke="hsl(228.5, 77.2%, 51.5%)" stroke-width="1.5"></path><path d="M1009.55 243.25L1009.55 243.25" stroke="hsl(228.5, 77.2%, 51.5%)" stroke-width="1.5"></path><path d="M1009.55 243.25L1128.12 242.77" stroke="hsl(228.5, 77.2%, 51.5%)" stroke-width="1.5"></path><path d="M1009.55 243.25L1147.95 348.64" stroke="hsl(228.5, 77.2%, 51.5%)" stroke-width="1.5"></path><path d="M946.21 528.32L946.21 528.32" stroke="hsl(228.5, 77.2%, 51.5%)" stroke-width="1.5"></path><path d="M946.21 528.32L969.91 650.69" stroke="hsl(228.5, 77.2%, 51.5%)" stroke-width="1.5"></path><path d="M946.21 528.32L790.46 504.71" stroke="hsl(228.5, 77.2%, 51.5%)" stroke-width="1.5"></path><path d="M969.91 650.69L969.91 650.69" stroke="hsl(228.5, 77.2%, 51.5%)" stroke-width="1.5"></path><path d="M969.91 650.69L1120.15 548.82" stroke="hsl(228.5, 77.2%, 51.5%)" stroke-width="1.5"></path><path d="M1128.12 242.77L1128.12 242.77" stroke="hsl(228.5, 77.2%, 51.5%)" stroke-width="1.5"></path><path d="M1128.12 242.77L1147.95 348.64" stroke="hsl(228.5, 77.2%, 51.5%)" stroke-width="1.5"></path><path d="M1147.95 348.64L1147.95 348.64" stroke="hsl(228.5, 77.2%, 51.5%)" stroke-width="1.5"></path><path d="M1147.95 348.64L1264.88 357.54" stroke="hsl(228.5, 77.2%, 51.5%)" stroke-width="1.5"></path><path d="M1120.15 548.82L1120.15 548.82" stroke="hsl(228.5, 77.2%, 51.5%)" stroke-width="1.5"></path><path d="M1120.15 548.82L1242.32 522.02" stroke="hsl(228.5, 77.2%, 51.5%)" stroke-width="1.5"></path><path d="M1274.4 73.35L1274.4 73.35" stroke="hsl(228.5, 77.2%, 51.5%)" stroke-width="1.5"></path><path d="M1274.4 73.35L1391.95 -85.15" stroke="hsl(228.5, 77.2%, 51.5%)" stroke-width="1.5"></path><path d="M1274.4 73.35L1128.12 242.77" stroke="hsl(228.5, 77.2%, 51.5%)" stroke-width="1.5"></path><path d="M1274.4 73.35L1441.43 249.96" stroke="hsl(228.5, 77.2%, 51.5%)" stroke-width="1.5"></path><path d="M1264.88 357.54L1264.88 357.54" stroke="hsl(228.5, 77.2%, 51.5%)" stroke-width="1.5"></path><path d="M1264.88 357.54L1242.32 522.02" stroke="hsl(228.5, 77.2%, 51.5%)" stroke-width="1.5"></path><path d="M1264.88 357.54L1128.12 242.77" stroke="hsl(228.5, 77.2%, 51.5%)" stroke-width="1.5"></path><path d="M1242.32 522.02L1242.32 522.02" stroke="hsl(228.5, 77.2%, 51.5%)" stroke-width="1.5"></path><path d="M1281.02 707.11L1281.02 707.11" stroke="hsl(228.5, 77.2%, 51.5%)" stroke-width="1.5"></path><path d="M1281.02 707.11L1242.32 522.02" stroke="hsl(228.5, 77.2%, 51.5%)" stroke-width="1.5"></path><path d="M1281.02 707.11L1093.43 652.32" stroke="hsl(228.5, 77.2%, 51.5%)" stroke-width="1.5"></path><path d="M1281.02 707.11L1391.62 512.6" stroke="hsl(228.5, 77.2%, 51.5%)" stroke-width="1.5"></path><path d="M1391.95 -85.15L1391.95 -85.15" stroke="hsl(228.5, 77.2%, 51.5%)" stroke-width="1.5"></path><path d="M1391.95 -85.15L1579.5 -50.14" stroke="hsl(228.5, 77.2%, 51.5%)" stroke-width="1.5"></path><path d="M1391.95 -85.15L1441.43 249.96" stroke="hsl(228.5, 77.2%, 51.5%)" stroke-width="1.5"></path><path d="M1441.43 249.96L1441.43 249.96" stroke="hsl(228.5, 77.2%, 51.5%)" stroke-width="1.5"></path><path d="M1441.43 249.96L1460.26 340.28" stroke="hsl(228.5, 77.2%, 51.5%)" stroke-width="1.5"></path><path d="M1441.43 249.96L1598.23 214.42" stroke="hsl(228.5, 77.2%, 51.5%)" stroke-width="1.5"></path><path d="M1441.43 249.96L1574.78 369.38" stroke="hsl(228.5, 77.2%, 51.5%)" stroke-width="1.5"></path><path d="M1441.43 249.96L1254.83 241.12" stroke="hsl(228.5, 77.2%, 51.5%)" stroke-width="1.5"></path><path d="M1441.43 249.96L1264.88 357.54" stroke="hsl(228.5, 77.2%, 51.5%)" stroke-width="1.5"></path><path d="M1460.26 340.28L1460.26 340.28" stroke="hsl(228.5, 77.2%, 51.5%)" stroke-width="1.5"></path><path d="M1460.26 340.28L1574.78 369.38" stroke="hsl(228.5, 77.2%, 51.5%)" stroke-width="1.5"></path><path d="M1460.26 340.28L1598.23 214.42" stroke="hsl(228.5, 77.2%, 51.5%)" stroke-width="1.5"></path><path d="M1460.26 340.28L1264.88 357.54" stroke="hsl(228.5, 77.2%, 51.5%)" stroke-width="1.5"></path><path d="M1460.26 340.28L1254.83 241.12" stroke="hsl(228.5, 77.2%, 51.5%)" stroke-width="1.5"></path><path d="M1579.5 -50.14L1579.5 -50.14" stroke="hsl(228.5, 77.2%, 51.5%)" stroke-width="1.5"></path><path d="M1579.5 -50.14L1390.69 106.93" stroke="hsl(228.5, 77.2%, 51.5%)" stroke-width="1.5"></path><path d="M1598.23 214.42L1598.23 214.42" stroke="hsl(228.5, 77.2%, 51.5%)" stroke-width="1.5"></path><path d="M1598.23 214.42L1574.78 369.38" stroke="hsl(228.5, 77.2%, 51.5%)" stroke-width="1.5"></path><path d="M1598.23 214.42L1390.69 106.93" stroke="hsl(228.5, 77.2%, 51.5%)" stroke-width="1.5"></path><path d="M1598.23 214.42L1579.5 -50.14" stroke="hsl(228.5, 77.2%, 51.5%)" stroke-width="1.5"></path><path d="M1598.23 214.42L1254.83 241.12" stroke="hsl(228.5, 77.2%, 51.5%)" stroke-width="1.5"></path><path d="M1574.78 369.38L1574.78 369.38" stroke="hsl(228.5, 77.2%, 51.5%)" stroke-width="1.5"></path><path d="M1574.78 369.38L1541.1 555.95" stroke="hsl(228.5, 77.2%, 51.5%)" stroke-width="1.5"></path><path d="M1574.78 369.38L1391.62 512.6" stroke="hsl(228.5, 77.2%, 51.5%)" stroke-width="1.5"></path><path d="M1574.78 369.38L1264.88 357.54" stroke="hsl(228.5, 77.2%, 51.5%)" stroke-width="1.5"></path><path d="M1541.1 555.95L1541.1 555.95" stroke="hsl(228.5, 77.2%, 51.5%)" stroke-width="1.5"></path><path d="M1541.1 555.95L1571.64 684.11" stroke="hsl(228.5, 77.2%, 51.5%)" stroke-width="1.5"></path><path d="M1571.64 684.11L1571.64 684.11" stroke="hsl(228.5, 77.2%, 51.5%)" stroke-width="1.5"></path><path d="M1571.64 684.11L1391.62 512.6" stroke="hsl(228.5, 77.2%, 51.5%)" stroke-width="1.5"></path><circle r="25" cx="-95.59" cy="644.36" fill="url(&quot;#SvgjsRadialGradient1001&quot;)"></circle><circle r="25" cx="516.61" cy="697.92" fill="url(&quot;#SvgjsRadialGradient1001&quot;)"></circle><circle r="25" cx="674.34" cy="383.59" fill="url(&quot;#SvgjsRadialGradient1001&quot;)"></circle><circle r="25" cx="995.44" cy="354.73" fill="url(&quot;#SvgjsRadialGradient1001&quot;)"></circle><circle r="25" cx="1093.43" cy="652.32" fill="url(&quot;#SvgjsRadialGradient1001&quot;)"></circle><circle r="25" cx="1281.56" cy="-77.22" fill="url(&quot;#SvgjsRadialGradient1001&quot;)"></circle><circle r="25" cx="1254.83" cy="241.12" fill="url(&quot;#SvgjsRadialGradient1001&quot;)"></circle><circle r="25" cx="1390.69" cy="106.93" fill="url(&quot;#SvgjsRadialGradient1001&quot;)"></circle><circle r="25" cx="1391.62" cy="512.6" fill="url(&quot;#SvgjsRadialGradient1001&quot;)"></circle><circle r="5" cx="-72.9" cy="555.64" fill="#8b9ad9"></circle><circle r="5" cx="100.69" cy="498.55" fill="#8b9ad9"></circle><circle r="5" cx="94.28" cy="650.85" fill="#8b9ad9"></circle><circle r="5" cx="229.6" cy="534.99" fill="#8b9ad9"></circle><circle r="5" cx="401.16" cy="499.99" fill="#8b9ad9"></circle><circle r="5" cx="401.65" cy="645.35" fill="#8b9ad9"></circle><circle r="5" cx="561.28" cy="524.17" fill="#8b9ad9"></circle><circle r="5" cx="712.03" cy="711.5" fill="#8b9ad9"></circle><circle r="5" cx="851.01" cy="387.55" fill="#8b9ad9"></circle><circle r="5" cx="790.46" cy="504.71" fill="#8b9ad9"></circle><circle r="5" cx="847.54" cy="647.8" fill="#8b9ad9"></circle><circle r="5" cx="1009.55" cy="243.25" fill="#8b9ad9"></circle><circle r="5" cx="946.21" cy="528.32" fill="#8b9ad9"></circle><circle r="5" cx="969.91" cy="650.69" fill="#8b9ad9"></circle><circle r="5" cx="1128.12" cy="242.77" fill="#8b9ad9"></circle><circle r="5" cx="1147.95" cy="348.64" fill="#8b9ad9"></circle><circle r="5" cx="1120.15" cy="548.82" fill="#8b9ad9"></circle><circle r="5" cx="1274.4" cy="73.35" fill="#8b9ad9"></circle><circle r="5" cx="1264.88" cy="357.54" fill="#8b9ad9"></circle><circle r="5" cx="1242.32" cy="522.02" fill="#8b9ad9"></circle><circle r="5" cx="1281.02" cy="707.11" fill="#8b9ad9"></circle><circle r="5" cx="1391.95" cy="-85.15" fill="#8b9ad9"></circle><circle r="5" cx="1441.43" cy="249.96" fill="#8b9ad9"></circle><circle r="5" cx="1460.26" cy="340.28" fill="#8b9ad9"></circle><circle r="5" cx="1579.5" cy="-50.14" fill="#8b9ad9"></circle><circle r="5" cx="1598.23" cy="214.42" fill="#8b9ad9"></circle><circle r="5" cx="1574.78" cy="369.38" fill="#8b9ad9"></circle><circle r="5" cx="1541.1" cy="555.95" fill="#8b9ad9"></circle><circle r="5" cx="1571.64" cy="684.11" fill="#8b9ad9"></circle></g><defs><mask id="SvgjsMask1000"><rect width="1440" height="560" fill="#ffffff"></rect></mask><radialGradient id="SvgjsRadialGradient1001"><stop stop-color="#ffffff" offset="0.1"></stop><stop stop-color="#1735b3" offset="0.2"></stop><stop stop-color="rgba(23, 53, 179, 0)" offset="1"></stop></radialGradient></defs></svg>