<svg id="visual" viewBox="0 0 900 600" width="900" height="600" xmlns="http://www.w3.org/2000/svg" xmlns:xlink="http://www.w3.org/1999/xlink" version="1.1"><rect x="0" y="0" width="900" height="600" fill="#002233"></rect><path d="M0 398L12.5 406C25 414 50 430 75 436.5C100 443 125 440 150 440C175 440 200 443 225 446.3C250 449.7 275 453.3 300 447C325 440.7 350 424.3 375 416.2C400 408 425 408 450 408.8C475 409.7 500 411.3 525 420.2C550 429 575 445 600 445C625 445 650 429 675 427.5C700 426 725 439 750 440.2C775 441.3 800 430.7 825 412.5C850 394.3 875 368.7 887.5 355.8L900 343L900 601L887.5 601C875 601 850 601 825 601C800 601 775 601 750 601C725 601 700 601 675 601C650 601 625 601 600 601C575 601 550 601 525 601C500 601 475 601 450 601C425 601 400 601 375 601C350 601 325 601 300 601C275 601 250 601 225 601C200 601 175 601 150 601C125 601 100 601 75 601C50 601 25 601 12.5 601L0 601Z" fill="#0066FF" stroke-linecap="round" stroke-linejoin="miter"></path></svg>